<svg xmlns="http://www.w3.org/2000/svg" xmlns:xlink="http://www.w3.org/1999/xlink" width="500" zoomAndPan="magnify" viewBox="0 0 375 374.999991" height="500" preserveAspectRatio="xMidYMid meet" version="1.0"><defs><g/><clipPath id="1cbf3b2374"><path d="M 187.5 0 C 83.945312 0 0 83.945312 0 187.5 C 0 291.054688 83.945312 375 187.5 375 C 291.054688 375 375 291.054688 375 187.5 C 375 83.945312 291.054688 0 187.5 0 Z M 187.5 0 " clip-rule="nonzero"/></clipPath></defs><g clip-path="url(#1cbf3b2374)"><rect x="-37.5" width="450" fill="#171616" y="-37.499999" height="449.999989" fill-opacity="1"/></g><g fill="#fff9f9" fill-opacity="1"><g transform="translate(41.187763, 259.680007)"><g><path d="M 2.671875 -61.828125 L 2.671875 -155.703125 L 150.359375 -155.703125 L 150.359375 -98.09375 L 60.71875 -98.09375 L 60.71875 -61.828125 Z M 76.953125 -94.3125 L 133.890625 -94.3125 C 140.867188 -89.707031 145.953125 -84.03125 149.140625 -77.28125 C 152.328125 -70.539062 153.921875 -63.535156 153.921875 -56.265625 C 153.921875 -42.328125 150.953125 -31.242188 145.015625 -23.015625 C 139.085938 -14.785156 130.632812 -8.890625 119.65625 -5.328125 C 108.6875 -1.773438 95.492188 0 80.078125 0 L 2.671875 0 L 2.671875 -57.828125 L 79.1875 -57.828125 C 83.332031 -57.828125 86.703125 -58.9375 89.296875 -61.15625 C 91.890625 -63.382812 93.671875 -66.164062 94.640625 -69.5 C 95.609375 -72.84375 95.644531 -76.179688 94.75 -79.515625 C 93.863281 -82.847656 91.972656 -85.703125 89.078125 -88.078125 C 86.191406 -90.453125 82.148438 -91.785156 76.953125 -92.078125 Z M 76.953125 -94.3125 "/></g></g></g><g fill="#fff9f9" fill-opacity="1"><g transform="translate(193.902328, 259.680007)"><g><path d="M 71.625 -155.703125 C 84.375 -155.703125 95.753906 -154.101562 105.765625 -150.90625 C 115.773438 -147.71875 123.632812 -142.710938 129.34375 -135.890625 C 135.050781 -129.078125 137.90625 -120.179688 137.90625 -109.203125 C 137.90625 -104.160156 136.941406 -99.226562 135.015625 -94.40625 C 133.085938 -89.59375 130.046875 -85.484375 125.890625 -82.078125 C 133.160156 -78.816406 138.5 -74.035156 141.90625 -67.734375 C 145.3125 -61.429688 147.015625 -54.71875 147.015625 -47.59375 C 147.015625 -36.175781 144.125 -26.945312 138.34375 -19.90625 C 132.5625 -12.863281 124.441406 -7.785156 113.984375 -4.671875 C 103.535156 -1.554688 91.269531 0 77.1875 0 L 2.21875 0 L 2.21875 -155.703125 Z M 76.296875 -99.640625 C 79.847656 -99.640625 82.476562 -100.492188 84.1875 -102.203125 C 85.894531 -103.910156 86.75 -105.835938 86.75 -107.984375 C 86.75 -110.140625 85.894531 -112.066406 84.1875 -113.765625 C 82.476562 -115.472656 79.847656 -116.328125 76.296875 -116.328125 L 60.046875 -116.328125 L 60.046875 -42.484375 L 78.296875 -42.484375 C 82.003906 -42.484375 84.742188 -43.375 86.515625 -45.15625 C 88.296875 -46.9375 89.1875 -48.972656 89.1875 -51.265625 C 89.1875 -53.566406 88.257812 -55.601562 86.40625 -57.375 C 84.550781 -59.15625 81.769531 -60.046875 78.0625 -60.046875 L 63.828125 -60.046875 L 63.828125 -99.640625 Z M 76.296875 -99.640625 "/></g></g></g></svg>